<svg id="Groupe_84" data-name="Groupe 84" xmlns="http://www.w3.org/2000/svg" xmlns:xlink="http://www.w3.org/1999/xlink" width="40.368" height="80.735" viewBox="0 0 40.368 80.735">
  <defs>
    <clipPath id="clip-path">
      <path id="Tracé_14" data-name="Tracé 14" d="M0,0H40.368V80.735H0Z" fill="none"/>
    </clipPath>
  </defs>
  <g id="Groupe_de_masques_1" data-name="Groupe de masques 1" clip-path="url(#clip-path)">
    <path id="Tracé_8" data-name="Tracé 8" d="M52.986,100.141v20.475c1.369.259,2.663.482,3.835.667a4.54,4.54,0,0,0,5.247-4.486V99.132l-9.082,1.009Z" transform="translate(-21.702 -40.602)" fill="#818a55"/>
    <path id="Tracé_9" data-name="Tracé 9" d="M5.03,81.844C1.687,84.905,0,88.434,0,92.415c0,6.839,4.989,12.374,14.829,16.454a82.87,82.87,0,0,0,14.69,4.317V103.9c-8.13-1.826-14.345-4.318-17.687-7.027-2.042-1.47-8.106-6.61-6.8-15.027" transform="translate(0 -33.521)" fill="#a5884e"/>
    <path id="Tracé_10" data-name="Tracé 10" d="M44.5,61.722a112.174,112.174,0,0,0-18.766,3.752,47.358,47.358,0,0,0-13.9,6.316,12.876,12.876,0,0,0,1.891,11.744c.6-3.294,5.928-6.74,14.513-9.329a104.574,104.574,0,0,1,16.714-3.4V61.677Z" transform="translate(-4.587 -25.261)" fill="#b37953"/>
    <path id="Tracé_11" data-name="Tracé 11" d="M25.47,14.446C27.61,12.3,32.253,10.283,38.538,8.8V1.555C27.87,3.818,17.093,8.277,17.093,17.061a10.737,10.737,0,0,0,4.147,8.3,12.417,12.417,0,0,1,4.23-10.919" transform="translate(-7.001 -0.637)" fill="#657f8d"/>
    <path id="Tracé_12" data-name="Tracé 12" d="M28.516,29.984a10.23,10.23,0,0,0-1.051,8.65,37.7,37.7,0,0,0,9.56,4.151A83.909,83.909,0,0,0,51.06,45.591l.352.035v-7.1c-8.963-.959-20.83-4.31-22.9-8.539" transform="translate(-11.044 -12.281)" fill="#818a55"/>
    <path id="Tracé_13" data-name="Tracé 13" d="M56.4,16.141l7.064,1.01V3.532A3.531,3.531,0,0,0,59.382.044C58.4.2,57.407.372,56.4.563V16.141Z" transform="translate(-23.102 0)" fill="#a5884e"/>
  </g>
</svg>
