<svg xmlns="http://www.w3.org/2000/svg" xmlns:xlink="http://www.w3.org/1999/xlink" width="138.288" height="50.451" viewBox="0 0 138.288 50.451">
  <defs>
    <clipPath id="clip-path">
      <rect id="Rectangle_4" data-name="Rectangle 4" width="97.353" height="46.782" fill="#fff"/>
    </clipPath>
    <clipPath id="clip-path-2">
      <path id="Tracé_14" data-name="Tracé 14" d="M0,0H23.963V47.925H0Z" fill="none"/>
    </clipPath>
  </defs>
  <g id="Groupe_5" data-name="Groupe 5" transform="translate(-50 -83.375)">
    <g id="Groupe_2" data-name="Groupe 2" transform="translate(90.935 83.375)">
      <g id="Groupe_1" data-name="Groupe 1" clip-path="url(#clip-path)">
        <path id="Tracé_1" data-name="Tracé 1" d="M13.918,31.94a4.032,4.032,0,0,0-1.465-.263,3.85,3.85,0,0,0-2.787,1.163,3.772,3.772,0,0,0-1.186,2.79,2.951,2.951,0,0,0,.422,1.7,1.325,1.325,0,0,0,1.148.611,4.142,4.142,0,0,0,1.608-.374,14.861,14.861,0,0,0,2.587-1.629V42.8a12.6,12.6,0,0,1-4.769.907,11.087,11.087,0,0,1-4.654-.968A7.887,7.887,0,0,1,.363,37.885,8.3,8.3,0,0,1,0,35.4a9.788,9.788,0,0,1,.332-2.6,8.8,8.8,0,0,1,.98-2.3,8.912,8.912,0,0,1,3.611-3.321,11.35,11.35,0,0,1,5.328-1.191,10.676,10.676,0,0,1,3.668.518Z" transform="translate(0 -18.509)" fill="#fff"/>
        <rect id="Rectangle_1" data-name="Rectangle 1" width="6.557" height="16.835" transform="translate(16.841 7.948)" fill="#fff"/>
        <path id="Tracé_2" data-name="Tracé 2" d="M90.668,27.632h1.707l9.191,6.558V27.632H107.5V44.466h-2.267l-8.653-5.788v5.788H90.668Z" transform="translate(-64.589 -19.684)" fill="#fff"/>
        <path id="Tracé_3" data-name="Tracé 3" d="M158.59,7.947h12.132V12.8h-5.577v1.381H170.7V18.31h-5.554V19.9h5.945v4.879h-12.5Zm7.1-2.277c-.394.493-.718.739-.974.739s-.386-.193-.386-.58a1.956,1.956,0,0,1,.084-.57L165.926,0h4.3Z" transform="translate(-112.975)" fill="#fff"/>
        <path id="Tracé_4" data-name="Tracé 4" d="M16.914,109.642v8.5a37.642,37.642,0,0,1-5.9.622,13.312,13.312,0,0,1-4.132-.627,10.16,10.16,0,0,1-3.341-1.786,8.276,8.276,0,0,1-2.214-2.81,8.346,8.346,0,0,1-.8-3.695,7.6,7.6,0,0,1,3.2-6.409,13.336,13.336,0,0,1,8.207-2.393,11.639,11.639,0,0,1,3.889.526,2.159,2.159,0,0,0,.273.1v5.092a9.765,9.765,0,0,0-2.845-.474,5.2,5.2,0,0,0-3.7,1.253,3.824,3.824,0,0,0-1.33,2.889,2.756,2.756,0,0,0,.628,1.865,2.154,2.154,0,0,0,1.723.727,2.278,2.278,0,0,0,.922-.148c.014-.26,0-.593,0-1v-2.225Z" transform="translate(-0.372 -71.979)" fill="#fff"/>
        <path id="Tracé_5" data-name="Tracé 5" d="M74.038,119.935q-8.38,0-8.379-7.127V102.689H72.31v9.93a1.911,1.911,0,0,0,1,1.95,2,2,0,0,0,.833.158,1.628,1.628,0,0,0,1.729-1.307,3.251,3.251,0,0,0,.1-.843v-9.888h5.83v10.119q0,7.128-7.77,7.127" transform="translate(-46.774 -73.153)" fill="#fff"/>
        <rect id="Rectangle_2" data-name="Rectangle 2" width="6.557" height="16.835" transform="translate(37.566 29.536)" fill="#fff"/>
        <path id="Tracé_6" data-name="Tracé 6" d="M162.72,102.689h2.414l8.138,7.643,8.36-7.643h2.329v16.835h-6.925v-5.461l-4.3,4.722-4.184-4.6v5.335H162.72Z" transform="translate(-115.917 -73.153)" fill="#fff"/>
        <path id="Tracé_7" data-name="Tracé 7" d="M245.958,102.038q5.723-.264,8.222-.263,4.647,0,6.672,1.054a3.267,3.267,0,0,1,1.206,4.822,4.816,4.816,0,0,1-1.85,1.356,5.377,5.377,0,0,1,2.4,1.5,5.16,5.16,0,0,1,1.106,3.5q0,4.8-7.421,5.07-1.066.043-1.654.042c-.394,0-.736,0-1.024-.01s-.617-.015-.985-.027l-1.2-.032q-.649-.015-1.312-.042c-.444-.017-.878-.033-1.307-.047s-.829-.03-1.2-.047-.7-.032-.99-.042-.51-.023-.664-.037Zm6.588,7.706a13.206,13.206,0,0,0,2.381-1.108,2.245,2.245,0,0,0,1.223-1.771.825.825,0,0,0-.7-.853,1.5,1.5,0,0,0-.4-.054,2,2,0,0,0-.491.074,4.09,4.09,0,0,0-.553.191,6.054,6.054,0,0,0-.933.457q-.51.3-.531.322Zm4.164,2.582q0-.885-1.044-.885a5.793,5.793,0,0,0-2.457.917l-.664.358v2.656c.1-.035.191-.07.28-.106s.288-.112.6-.231a12.642,12.642,0,0,0,2.3-1.044,1.934,1.934,0,0,0,.982-1.666" transform="translate(-175.214 -72.502)" fill="#fff"/>
        <rect id="Rectangle_3" data-name="Rectangle 3" width="6.557" height="16.835" transform="translate(90.796 29.536)" fill="#fff"/>
      </g>
    </g>
    <g id="Groupe_4" data-name="Groupe 4" transform="translate(50 85.901)">
      <g id="Groupe_de_masques_1" data-name="Groupe de masques 1" clip-path="url(#clip-path-2)">
        <path id="Tracé_8" data-name="Tracé 8" d="M52.986,99.731v12.154c.812.154,1.581.286,2.277.4a2.7,2.7,0,0,0,3.115-2.663V99.132l-5.391.6Z" transform="translate(-34.416 -64.388)" fill="#818a55"/>
        <path id="Tracé_9" data-name="Tracé 9" d="M2.986,81.844A8.314,8.314,0,0,0,0,88.119c0,4.06,2.962,7.345,8.8,9.767a49.193,49.193,0,0,0,8.72,2.563V94.936c-4.826-1.084-8.515-2.563-10.5-4.171-1.212-.873-4.812-3.924-4.038-8.92" transform="translate(0 -53.159)" fill="#a5884e"/>
        <path id="Tracé_10" data-name="Tracé 10" d="M30.968,61.7a66.588,66.588,0,0,0-11.14,2.227,28.112,28.112,0,0,0-8.251,3.749A7.643,7.643,0,0,0,12.7,74.652c.357-1.955,3.519-4,8.615-5.538A62.077,62.077,0,0,1,31.236,67.1V61.677Z" transform="translate(-7.274 -40.061)" fill="#b37953"/>
        <path id="Tracé_11" data-name="Tracé 11" d="M22.066,9.207c1.27-1.275,4.026-2.472,7.757-3.351v-4.3c-6.332,1.343-12.73,3.99-12.73,9.2a6.374,6.374,0,0,0,2.461,4.93,7.371,7.371,0,0,1,2.511-6.482" transform="translate(-11.102 -1.01)" fill="#657f8d"/>
        <path id="Tracé_12" data-name="Tracé 12" d="M27.885,29.984a6.072,6.072,0,0,0-.624,5.135,22.376,22.376,0,0,0,5.675,2.464,49.809,49.809,0,0,0,8.331,1.665l.209.021V35.053c-5.32-.569-12.365-2.558-13.591-5.069" transform="translate(-17.513 -19.475)" fill="#818a55"/>
        <path id="Tracé_13" data-name="Tracé 13" d="M56.4,9.582l4.193.6V2.1A2.1,2.1,0,0,0,58.172.026C57.591.119,57,.221,56.4.335V9.582Z" transform="translate(-36.636 0)" fill="#a5884e"/>
      </g>
    </g>
  </g>
</svg>
