<svg xmlns="http://www.w3.org/2000/svg" width="51.725" height="16.176" viewBox="0 0 51.725 16.176">
  <g id="Groupe_45" data-name="Groupe 45" transform="translate(0 -0.182)">
    <rect id="Rectangle_1" data-name="Rectangle 1" width="16.176" height="16.176" transform="translate(35.549 0.182)" fill="#777778"/>
    <rect id="Rectangle_2" data-name="Rectangle 2" width="16.176" height="16.176" transform="translate(17.775 0.182)" fill="#a8a8a8"/>
    <rect id="Rectangle_3" data-name="Rectangle 3" width="16.176" height="16.176" transform="translate(0 0.182)" fill="#1797c2"/>
    <g id="Groupe_4" data-name="Groupe 4" transform="translate(6.002 4.405)">
      <g id="Groupe_1" data-name="Groupe 1" transform="translate(0 0.114)">
        <path id="Tracé_1" data-name="Tracé 1" d="M65.742,55.187v-7.5h1.132v6.528h3.4v.974Z" transform="translate(-65.742 -47.685)" fill="#fff"/>
      </g>
      <g id="Groupe_2" data-name="Groupe 2" transform="translate(15.029 0.114)">
        <path id="Tracé_2" data-name="Tracé 2" d="M232.45,55.187l-2.081-7.5h1.191l1.462,5.81h.07l1.52-5.81h1.18l1.52,5.814h.07l1.458-5.814h1.194l-2.084,7.5h-1.139l-1.579-5.619h-.059l-1.579,5.619Z" transform="translate(-230.369 -47.685)" fill="#fff"/>
      </g>
      <g id="Groupe_3" data-name="Groupe 3" transform="translate(34.844)">
        <path id="Tracé_3" data-name="Tracé 3" d="M451.814,48.514a1.076,1.076,0,0,0-.484-.808,1.868,1.868,0,0,0-1.07-.287,2.014,2.014,0,0,0-.8.145,1.234,1.234,0,0,0-.522.4.936.936,0,0,0-.185.57.828.828,0,0,0,.126.462,1.07,1.07,0,0,0,.333.324,2.291,2.291,0,0,0,.445.216,4.681,4.681,0,0,0,.458.141l.733.191a5.6,5.6,0,0,1,.736.238,2.954,2.954,0,0,1,.7.4,1.916,1.916,0,0,1,.522.608,1.774,1.774,0,0,1,.2.868,2,2,0,0,1-.328,1.132,2.213,2.213,0,0,1-.949.78,3.569,3.569,0,0,1-1.5.286,3.639,3.639,0,0,1-1.458-.267,2.238,2.238,0,0,1-.964-.76,2.188,2.188,0,0,1-.385-1.17h1.136a1.146,1.146,0,0,0,.266.676,1.388,1.388,0,0,0,.6.4,2.368,2.368,0,0,0,.8.13,2.264,2.264,0,0,0,.855-.152,1.408,1.408,0,0,0,.592-.425,1,1,0,0,0,.216-.639.792.792,0,0,0-.189-.546,1.432,1.432,0,0,0-.509-.352,5.067,5.067,0,0,0-.723-.245l-.887-.242a3.434,3.434,0,0,1-1.427-.722,1.618,1.618,0,0,1-.526-1.26,1.872,1.872,0,0,1,.352-1.132,2.323,2.323,0,0,1,.952-.753,3.281,3.281,0,0,1,1.355-.269,3.2,3.2,0,0,1,1.346.267,2.274,2.274,0,0,1,.921.734,1.866,1.866,0,0,1,.352,1.072Z" transform="translate(-447.425 -46.441)" fill="#fff"/>
      </g>
    </g>
  </g>
</svg>
